<svg t="1600674152427" class="icon" viewBox="0 0 1024 1024" version="1.1" xmlns="http://www.w3.org/2000/svg" p-id="1760" width="200" height="200">
  <path d="M907.264 948.224l-49.152-36.864c96.256-122.88 96.256-167.936 92.16-182.272h-2.048c-30.72 0-124.928 38.912-190.464 65.536-167.936 69.632-272.384 110.592-319.488 63.488-49.152-51.2 22.528-147.456 149.504-313.344 40.96-51.2 96.256-124.928 120.832-167.936-61.44 43.008-180.224 159.744-272.384 249.856C157.696 901.12 75.776 968.704 28.672 925.696c-30.72-28.672-79.872-75.776 366.592-847.872l53.248 30.72C120.832 673.792 73.728 829.44 71.68 870.4c57.344-26.624 217.088-182.272 325.632-288.768 258.048-251.904 327.68-311.296 370.688-272.384 47.104 40.96-8.192 116.736-129.024 274.432-57.344 75.776-153.6 198.656-151.552 235.52 30.72 12.288 172.032-47.104 247.808-77.824 153.6-63.488 229.376-94.208 262.144-51.2 38.912 49.152 10.24 129.024-90.112 258.048zM71.68 882.688z" fill="#4cc06d" p-id="1761" />
</svg>