<svg
  t="1600691506307"
  viewBox="0 0 1024 1024"
  version="1.1"
  xmlns="http://www.w3.org/2000/svg"
  p-id="666"
  width="200"
  height="200"
>
  <path
    d="M1024.064 640q0 94.848-72.576 257.728l-6.016 13.728q-4.288 9.728-7.712 17.152t-7.424 12.576q-6.848 9.728-16 9.728-8.576 0-13.44-5.728t-4.864-14.272q0-5.152 1.44-15.136t1.44-13.44q2.848-38.848 2.848-70.272 0-57.728-10.016-103.424t-27.712-79.136-45.728-57.728-60.288-39.712-76-24.288-88-12.288-100.288-3.424h-128v146.272q0 14.848-10.848 25.728t-25.728 10.848-25.728-10.848L10.848 391.488Q0 380.64 0 365.76t10.848-25.728L303.424 47.456q10.848-10.848 25.728-10.848t25.728 10.848 10.848 25.728v146.272h128q407.424 0 500 230.272 30.272 76.576 30.272 190.272z"
    p-id="667"
    fill="#000000"
  />
</svg>